<svg xmlns="http://www.w3.org/2000/svg" viewBox="0 0 1024 1024">
  <!-- 蓝白配色，无渐变背景 -->
  <!-- 圆形蓝色背景 -->
  <circle cx="512" cy="512" r="460" fill="#3b82f6"/>

  <!-- 白色背景矩形（文字背景） -->
  <rect x="212" y="140" width="600" height="120" rx="60" ry="60" fill="#ffffff"/>

  <!-- GitDaily 文字 -->
  <text x="512" y="228" text-anchor="middle" font-family="-apple-system, BlinkMacSystemFont, 'Segoe UI', Roboto, 'Helvetica Neue', Arial, sans-serif" font-size="80" font-weight="700" fill="#3b82f6">GitDaily</text>

  <!-- 白色分支图标，使用 branch_add.svg 的绘制风格，垂直翻转（分叉向上） -->
  <!-- 往下移动，给文字留出空间 -->
  <g transform="translate(512, 620) translate(-430, -430) scale(0.78)" fill="#ffffff">
    <g transform="translate(512, 512) scale(1, -1) translate(-512, -512)">
      <path d="M234.666667 192a64 64 0 1 0 0 128 64 64 0 0 0 0-128zM85.333333 256a149.333333 149.333333 0 1 1 199.125334 140.8A85.333333 85.333333 0 0 0 362.666667 448h298.666666a170.666667 170.666667 0 0 1 170.666667 170.666667v6.186666a149.418667 149.418667 0 0 1-42.666667 292.48 149.333333 149.333333 0 0 1-42.666666-292.48V618.666667a85.333333 85.333333 0 0 0-85.333334-85.333334h-298.666666a169.898667 169.898667 0 0 1-85.333334-22.826666v114.346666a149.418667 149.418667 0 0 1-42.666666 292.48 149.333333 149.333333 0 0 1-42.666667-292.48v-225.706666A149.418667 149.418667 0 0 1 85.333333 256z m704 448a64 64 0 1 0 0 128 64 64 0 0 0 0-128z m-554.666666 0a64 64 0 1 0 0 128 64 64 0 0 0 0-128z"/>
    </g>
  </g>
</svg>