<svg xmlns="http://www.w3.org/2000/svg" viewBox="0 0 108 108">
  <!-- 蓝白配色单色版 -->
  <circle cx="54" cy="54" r="48" fill="#3b82f6"/>
  <g transform="translate(54, 54) translate(-43, -43) scale(0.84)" fill="#ffffff">
    <path d="M23.4 19.2a6.4 6.4 0 1 0 0 12.8 6.4 6.4 0 0 0 0-12.8zM8.5 25.6a14.9 14.9 0 1 1 19.9 14.1A8.5 8.5 0 0 0 36.3 44.8h29.9a17.1 17.1 0 0 1 17.1 17.1v0.6a14.9 14.9 0 0 1-4.3 29.2 14.9 14.9 0 0 1-4.3-29.2V61.9a8.5 8.5 0 0 0-8.5-8.5H36.3a17 17 0 0 1-8.5-2.3v11.4a14.9 14.9 0 0 1-4.3 29.2 14.9 14.9 0 0 1-4.3-29.2V36.8A14.9 14.9 0 0 1 8.5 25.6z m70.4 44.8a6.4 6.4 0 1 0 0 12.8 6.4 6.4 0 0 0 0-12.8z m-55.5 0a6.4 6.4 0 1 0 0 12.8 6.4 6.4 0 0 0 0-12.8z"/>
  </g>
</svg>
