<svg viewBox="0 0 1024 1024" version="1.1" xmlns="http://www.w3.org/2000/svg" width="200" height="200">
  
  <!-- 原始图标组：垂直镜像翻转 -->
  <g transform="translate(0, 1024) scale(1, -1)">
    <path d="M234.666667 192a64 64 0 1 0 0 128 64 64 0 0 0 0-128zM85.333333 256a149.333333 149.333333 0 1 1 199.125334 140.8A85.333333 85.333333 0 0 0 362.666667 448h298.666666a170.666667 170.666667 0 0 1 170.666667 170.666667v6.186666a149.418667 149.418667 0 0 1-42.666667 292.48 149.333333 149.333333 0 0 1-42.666666-292.48V618.666667a85.333333 85.333333 0 0 0-85.333334-85.333334h-298.666666a169.898667 169.898667 0 0 1-85.333334-22.826666v114.346666a149.418667 149.418667 0 0 1-42.666666 292.48 149.333333 149.333333 0 0 1-42.666667-292.48v-225.706666A149.418667 149.418667 0 0 1 85.333333 256z m704 448a64 64 0 1 0 0 128 64 64 0 0 0 0-128z m-554.666666 0a64 64 0 1 0 0 128 64 64 0 0 0 0-128z" fill="#000000"></path>
  </g>

  <!-- 右下角的加号：坐标向左上调整，贴得更紧 -->
  <g stroke="#000000" stroke-width="90" stroke-linecap="round">
    <!-- 横线：中心点约在 (730, 800) -->
    <path d="M630 800 H830" />
    <!-- 竖线 -->
    <path d="M730 700 V900" />
  </g>
  
</svg>