<svg xmlns="http://www.w3.org/2000/svg" viewBox="0 0 32 32">
  <!-- 蓝白配色 favicon -->
  <circle cx="16" cy="16" r="14" fill="#3b82f6"/>
  <g transform="translate(16, 16) translate(-13, -13) scale(0.84)" fill="#ffffff">
    <path d="M6.9 5.8a1.9 1.9 0 1 0 0 3.8 1.9 1.9 0 0 0 0-3.8zM2.5 7.7a4.4 4.4 0 1 1 5.9 4.2 2.5 2.5 0 0 0 2.5 2.5h8.8a5 5 0 0 1 5 5v0.1a4.4 4.4 0 0 1-1.3 8.7 4.4 4.4 0 0 1-1.3-8.7v-0.2a2.5 2.5 0 0 0-2.5-2.5h-8.8a5 5 0 0 1-2.5-0.7v3.4a4.4 4.4 0 0 1-1.3 8.7 4.4 4.4 0 0 1-1.3-8.7v-6.7A4.4 4.4 0 0 1 2.5 7.7z m20.7 13.2a1.9 1.9 0 1 0 0 3.8 1.9 1.9 0 0 0 0-3.8z m-16.4 0a1.9 1.9 0 1 0 0 3.8 1.9 1.9 0 0 0 0-3.8z"/>
  </g>
</svg>
