<svg t="1769136145920" class="icon" viewBox="0 0 1024 1024" version="1.1" xmlns="http://www.w3.org/2000/svg" p-id="14026" width="200" height="200"><path d="M512 128a384 384 0 0 0 0 768h42.666667v85.333333h-42.666667C252.8 981.333333 42.666667 771.2 42.666667 512S252.8 42.666667 512 42.666667c63.914667 0 124.928 12.8 180.565333 36.010666l39.381334 16.426667-32.853334 78.762667-39.381333-16.426667A382.72 382.72 0 0 0 512 128z m486.997333 64L512 678.997333 259.669333 426.666667 320 366.336l192 192 426.666667-426.666667L998.997333 192zM853.333333 640v128h128v85.333333h-128v128h-85.333333v-128h-128v-85.333333h128v-128h85.333333z" fill="#000000" p-id="14027"></path></svg>